<svg xmlns="http://www.w3.org/2000/svg" width="196" height="100" fill="none" xmlns:v="https://vecta.io/nano"><path d="M101.203 40.185c0 1.461-1.19 2.637-2.667 2.637s-2.666-1.176-2.666-2.637 1.149-2.637 2.666-2.637c1.519.04 2.667 1.217 2.667 2.637h0zM90.209 45.5v.649s-1.271-1.624-3.979-1.624c-4.471 0-7.958 3.368-7.958 8.034 0 4.626 3.446 8.034 7.958 8.034 2.748 0 3.979-1.663 3.979-1.663v.689c0 .325.247.568.575.568h3.322V44.93h-3.322c-.328.001-.575.286-.575.57h0zm0 9.778c-.615.893-1.846 1.664-3.322 1.664-2.625 0-4.636-1.623-4.636-4.382s2.01-4.382 4.636-4.382c1.436 0 2.748.812 3.322 1.663v5.437zm6.358-10.346h3.938v15.256h-3.937V44.931h0zm58.823-.406c-2.708 0-3.98 1.624-3.98 1.624v-8.561h-3.937v22.599h3.323c.328 0 .573-.284.573-.568v-.689s1.272 1.663 3.979 1.663c4.472 0 7.958-3.407 7.958-8.033s-3.486-8.035-7.916-8.035h0zm-.657 12.375c-1.518 0-2.707-.77-3.323-1.663V49.8c.616-.811 1.928-1.663 3.323-1.663 2.625 0 4.635 1.623 4.635 4.382s-2.009 4.382-4.635 4.382zm-9.311-5.761v9.088h-3.938v-8.642c0-2.515-.821-3.53-3.034-3.53-1.19 0-2.421.609-3.201 1.502v10.631h-3.937V44.932h3.116c.329 0 .575.284.575.568v.649c1.148-1.177 2.666-1.624 4.183-1.624 1.723 0 3.159.488 4.308 1.461 1.394 1.136 1.928 2.597 1.928 5.153h0zm-23.669-6.614c-2.707 0-3.979 1.624-3.979 1.624v-8.561h-3.938v22.599h3.322c.329 0 .575-.284.575-.568v-.689s1.272 1.663 3.979 1.663c4.471 0 7.958-3.407 7.958-8.033.041-4.626-3.446-8.035-7.917-8.035h0zm-.657 12.375c-1.517 0-2.707-.77-3.322-1.663V49.8c.615-.811 1.928-1.663 3.322-1.663 2.626 0 4.636 1.623 4.636 4.382s-2.01 4.382-4.636 4.382zm-10.665-12.375c1.19 0 1.805.204 1.805.204v3.611s-3.282-1.096-5.332 1.218v10.671h-3.939V44.931h3.323c.329 0 .574.284.574.568v.649c.739-.852 2.339-1.624 3.569-1.624h0zM69.536 58.808l-.615-1.461-.943-2.069-.041-.041c-2.831-6.086-5.866-12.253-9.066-18.339l-.123-.244-.984-1.907c-.411-.731-.82-1.501-1.477-2.232-1.313-1.623-3.2-2.516-5.209-2.516-2.051 0-3.897.893-5.25 2.434-.616.73-1.067 1.501-1.477 2.232l-.984 1.907-.123.244c-3.159 6.086-6.235 12.252-9.065 18.339l-.041.081-.944 2.069a26.68 26.68 0 0 0-.615 1.461c-.534 1.501-.698 2.921-.492 4.382a8.64 8.64 0 0 0 5.333 6.735c1.067.447 2.174.649 3.323.649a9.37 9.37 0 0 0 1.067-.081c1.354-.162 2.748-.608 4.102-1.379 1.682-.933 3.282-2.272 5.086-4.219 1.805 1.948 3.445 3.286 5.086 4.219 1.354.771 2.749 1.217 4.102 1.379.328.041.739.081 1.067.081 1.149 0 2.297-.203 3.322-.649 2.872-1.137 4.881-3.733 5.333-6.735.326-1.42.162-2.839-.371-4.341h0zm-18.5 2.11c-2.215-2.759-3.651-5.356-4.143-7.546-.205-.933-.246-1.745-.123-2.475.082-.649.328-1.218.656-1.704.779-1.095 2.092-1.785 3.61-1.785s2.872.649 3.61 1.785c.328.487.574 1.056.657 1.704.123.731.081 1.582-.123 2.475-.494 2.15-1.93 4.747-4.144 7.546zm16.366 1.907c-.287 2.11-1.723 3.936-3.732 4.748-.984.405-2.051.527-3.117.405-1.025-.122-2.051-.447-3.117-1.055-1.477-.812-2.953-2.069-4.677-3.936 2.707-3.286 4.348-6.289 4.963-8.966.287-1.258.329-2.394.205-3.449-.163-1.014-.533-1.948-1.107-2.759-1.272-1.826-3.406-2.881-5.784-2.881s-4.512 1.096-5.783 2.881c-.574.812-.944 1.745-1.108 2.759-.164 1.055-.123 2.232.205 3.449.615 2.677 2.297 5.72 4.963 9.007-1.682 1.867-3.2 3.125-4.677 3.936-1.067.609-2.092.933-3.117 1.055a6.63 6.63 0 0 1-3.118-.405c-2.01-.811-3.445-2.638-3.732-4.748-.123-1.014-.041-2.028.369-3.164.123-.406.328-.811.533-1.298.287-.649.615-1.34.943-2.029l.041-.081c2.83-6.046 5.865-12.213 9.024-18.217l.123-.244.985-1.866c.328-.649.697-1.258 1.149-1.786.861-.973 2.01-1.501 3.282-1.501s2.42.528 3.282 1.501c.452.529.82 1.138 1.149 1.786l.984 1.866.123.244c3.111 6.029 6.105 12.117 8.983 18.258v.041c.329.65.616 1.38.944 2.03.205.486.41.891.533 1.297.327 1.054.45 2.069.286 3.124h0z" fill="#ed5050"/></svg>