<svg xmlns="http://www.w3.org/2000/svg" width="196" height="100" fill="none" xmlns:v="https://vecta.io/nano"><path d="M54.869 60.124c.411.363.67.864.725 1.403h-.834c-.18-.784-.717-1.28-1.727-1.28-1.228 0-2.054.837-2.054 2.593 0 1.44.683 2.425 2.029 2.425.951 0 1.567-.513 1.802-1.682h.834c-.163 1.432-1.19 2.421-2.733 2.421-1.681 0-2.8-1.198-2.8-3.307 0-1.9 1.136-3.184 2.917-3.184.788-.004 1.404.201 1.84.611h0zm1.84-.472h.771v2.306c.507-.628.834-.718 1.421-.718 1.023 0 1.542.464 1.542 1.719v2.88h-.771v-2.831c0-.845-.289-1.096-.926-1.096s-1.27.345-1.27 1.543v2.384h-.771v-6.187h.004zm5.516 5.006c0-.439.26-.673 1.01-.78l.901-.156a1.36 1.36 0 0 0 .365-.16v.603c.009.211-.049.42-.165.598a1.05 1.05 0 0 1-.485.399c-.469.217-1.014.271-1.379-.004-.08-.057-.144-.133-.188-.22a.58.58 0 0 1-.06-.281h0zm.658-1.379c-.867.103-1.442.558-1.442 1.391 0 .763.599 1.329 1.45 1.329.316.001.627-.066.913-.198s.538-.323.739-.561c.071.513.302.693.708.693l.26-.012c.063-.008.151-.033.273-.066v-.554l-.138.02-.113.004c-.101 0-.172-.025-.205-.074s-.05-.107-.05-.185V62.5c0-.858-.746-1.26-1.815-1.26-.922 0-1.748.373-1.773 1.489h.721c.08-.636.411-.833 1.035-.833.683 0 1.077.218 1.077.726 0 .123-.017.221-.05.287-.059.119-.176.197-.352.217l-1.236.152h0zm3.747-1.945h.754v.64c.49-.599.851-.739 1.354-.739.574 0 .943.172 1.224.71.151-.224.358-.407.602-.532s.515-.185.79-.178c.956 0 1.446.468 1.446 1.608v2.991h-.796v-3.123c0-1.017-1.048-.968-1.588-.488-.222.201-.327.533-.327.997v2.618h-.775v-2.942c0-.771-.235-.985-.763-.985-.591 0-1.153.382-1.153 1.543v2.384h-.767v-4.505h0zm9.414 4.009c-.809 0-1.253-.587-1.253-1.588 0-1.243.436-1.859 1.253-1.859.809 0 1.253.632 1.253 1.67 0 1.186-.532 1.777-1.253 1.777zm-2.003 2.294h.771v-2.289c.465.554.784.652 1.329.652 1.136 0 1.945-.895 1.945-2.499 0-1.444-.821-2.261-1.865-2.261-.281-.008-.558.054-.808.181s-.462.313-.617.541v-.595h-.754v6.269h0zm5.025-6.269h.771v4.472h-.771v-4.472h0zm0-1.682h.771v.866h-.771v-.866zm3.822 5.658c-.931 0-1.337-.718-1.337-1.674 0-.993.406-1.801 1.345-1.801.859 0 1.324.566 1.324 1.641 0 .931-.314 1.834-1.333 1.834zm.025-4.136c-1.308 0-2.15.968-2.15 2.478 0 1.428.801 2.314 2.045 2.314 1.492 0 2.196-1.055 2.196-2.507.004-1.502-.922-2.285-2.091-2.285zm3.051.127h.755v.636c.168-.231.391-.419.649-.547s.545-.193.835-.188c.998 0 1.492.427 1.492 1.715v2.885h-.771V63c0-.734-.289-1.087-.876-1.087-.499 0-.754.135-1.01.427-.26.3-.306.558-.306 1.141v2.359h-.771v-4.505h.004zm6.995-1.666h.851v6.171h-.851v-6.171zm2.238 1.666h.754v.636c.168-.231.391-.419.649-.547s.545-.193.835-.188c.989 0 1.492.423 1.492 1.715v2.885h-.771V63c0-.734-.289-1.087-.876-1.087-.499 0-.754.135-1.01.427-.26.3-.306.558-.306 1.141v2.359h-.771v-4.505h.004zm5.105-1.247h.771v1.247h.737v.624h-.737v2.926c0 .156.059.258.163.316a.69.69 0 0 0 .302.049l.117-.004c.051 0 .101-.005.151-.012v.607c-.189.046-.383.068-.578.066-.721 0-.926-.398-.926-.972v-2.971h-.621v-.628h.621v-1.247zm2.959 3.155c.033-.784.561-1.346 1.261-1.346.746 0 1.178.386 1.262 1.346h-2.523 0zm1.303-2.002c-1.278 0-2.154.993-2.154 2.437 0 1.465.897 2.322 2.033 2.322.905 0 1.462-.267 1.861-1.009.1-.168.167-.353.196-.546h-.754a1.19 1.19 0 0 1-.454.665c-.226.164-.502.246-.782.233-.851 0-1.237-.591-1.27-1.506h3.323c0-.447-.021-.776-.067-.985-.036-.294-.146-.574-.32-.817a1.82 1.82 0 0 0-.677-.57c-.289-.146-.61-.224-.935-.226zm3.068.094h.755v.78c.121-.308.645-.878 1.257-.878l.075.004.176.012v.8c-.041-.008-.083-.012-.125-.012l-.13-.004c-.792 0-1.233.57-1.233 1.21v2.589h-.771v-4.501h-.004zm3.047 0h.755v.636a1.78 1.78 0 0 1 .649-.546 1.83 1.83 0 0 1 .834-.189c.998 0 1.492.427 1.492 1.715v2.885h-.771V63c0-.739-.297-1.087-.872-1.087-.511 0-.762.135-1.01.427-.264.3-.31.554-.31 1.141v2.359h-.771v-4.505h.004zm5.516 3.324c0-.439.26-.673 1.01-.78l.901-.156c.129-.035.252-.089.365-.16v.603c.009.211-.049.42-.165.598s-.286.317-.485.399c-.469.217-1.014.271-1.379-.004a.59.59 0 0 1-.187-.22.57.57 0 0 1-.06-.281h0zm.658-1.379c-.868.103-1.446.558-1.446 1.391 0 .763.599 1.329 1.45 1.329.316.001.627-.066.913-.198s.538-.323.738-.561c.084.513.302.693.709.693l.26-.012a2.31 2.31 0 0 0 .272-.066v-.554l-.138.02-.114.004c-.1 0-.171-.025-.205-.074s-.05-.107-.05-.185V62.5c0-.854-.742-1.26-1.815-1.26-.922 0-1.748.373-1.773 1.489h.721c.084-.648.419-.833 1.035-.833.683 0 1.077.218 1.077.726 0 .123-.016.221-.05.287-.059.119-.176.197-.356.217l-1.228.152h0zm3.889-3.192h.776v1.247h.737v.624h-.737v2.926c0 .156.054.258.163.316a.73.73 0 0 0 .298.045l.121-.004.151-.012v.607c-.19.046-.386.068-.582.066-.721 0-.927-.398-.927-.972v-2.966h-.616v-.628h.616v-1.247h0zm2.461 1.28h.771v4.472h-.771v-4.472h0zm0-1.682h.771v.866h-.771v-.866zm3.822 5.658c-.93 0-1.337-.718-1.337-1.674 0-.993.406-1.801 1.345-1.801.86 0 1.325.566 1.325 1.641.004.931-.315 1.834-1.333 1.834zm.025-4.136c-1.308 0-2.15.968-2.15 2.478 0 1.428.801 2.314 2.045 2.314 1.492 0 2.197-1.055 2.197-2.507.004-1.502-.923-2.285-2.092-2.285zm3.139.127h.755v.636a1.78 1.78 0 0 1 .649-.546 1.83 1.83 0 0 1 .834-.189c.994 0 1.493.419 1.493 1.715v2.885h-.767V63c0-.739-.298-1.087-.872-1.087-.52 0-.763.14-1.01.427-.264.3-.31.554-.31 1.141v2.359h-.772v-4.505zm5.516 3.324c0-.439.26-.673 1.01-.78l.901-.156c.129-.035.252-.089.365-.16v.603c.009.211-.049.42-.165.598a1.05 1.05 0 0 1-.485.399c-.461.217-1.014.271-1.379-.004a.59.59 0 0 1-.187-.22.58.58 0 0 1-.06-.281h0zm.662-1.379c-.867.103-1.446.558-1.446 1.391 0 .763.6 1.329 1.45 1.329.713 0 1.337-.349 1.652-.759.071.513.302.693.712.693l.256-.012c.063-.008.155-.033.272-.066v-.554l-.134.02-.117.004c-.101 0-.172-.025-.205-.074s-.051-.107-.051-.185V62.5c0-.854-.742-1.26-1.815-1.26-.922 0-1.747.373-1.772 1.489h.72c.076-.64.411-.833 1.036-.833.683 0 1.077.218 1.077.726 0 .123-.017.221-.046.287-.063.119-.181.197-.357.217l-1.232.152h0zm3.743-3.594h.771v6.155h-.771v-6.155zm8.361.439a2.17 2.17 0 0 1 .726 1.403h-.834c-.181-.784-.717-1.28-1.727-1.28-1.228 0-2.054.841-2.054 2.593 0 1.44.683 2.425 2.029 2.425.951 0 1.567-.513 1.802-1.682h.834c-.164 1.432-1.19 2.421-2.733 2.421-1.681 0-2.8-1.198-2.8-3.307 0-1.9 1.136-3.184 2.918-3.184.787-.004 1.404.201 1.839.611h0zm3.546 5.219c-.93 0-1.333-.718-1.333-1.674 0-.993.411-1.801 1.342-1.801.867 0 1.324.566 1.324 1.641 0 .931-.31 1.834-1.333 1.834h0zm.025-4.136c-1.307 0-2.145.968-2.145 2.478 0 1.424.792 2.314 2.041 2.314 1.496 0 2.196-1.059 2.196-2.507.004-1.502-.922-2.285-2.092-2.285zm3.052.127h.754v.78c.122-.308.646-.878 1.257-.878l.076.004.176.012v.8c-.043-.008-.086-.012-.13-.012l-.126-.004c-.792 0-1.232.57-1.232 1.21v2.589h-.771v-4.501h-.004zm4.987 4.009c-.817 0-1.253-.587-1.253-1.588 0-1.243.436-1.859 1.253-1.859.805 0 1.253.636 1.253 1.67 0 1.19-.536 1.777-1.253 1.777zm-2.007 2.294h.771v-2.289c.452.554.779.652 1.328.652 1.136 0 1.945-.895 1.945-2.499 0-1.448-.821-2.261-1.869-2.261a1.68 1.68 0 0 0-.806.181c-.248.126-.46.312-.615.541v-.595h-.754v6.269h0zm6.819-2.294c-.931 0-1.333-.718-1.333-1.674 0-.993.411-1.801 1.341-1.801.872 0 1.325.57 1.325 1.641.004.931-.311 1.834-1.333 1.834h0zm.025-4.136c-1.308 0-2.146.968-2.146 2.478 0 1.428.796 2.314 2.041 2.314 1.492 0 2.196-1.055 2.196-2.507.005-1.502-.922-2.285-2.091-2.285zm2.963.127h.755v.78c.121-.304.641-.878 1.257-.878l.075.004.181.012v.8c-.043-.008-.087-.012-.13-.012l-.13-.004c-.788 0-1.228.57-1.228 1.21v2.589h-.776v-4.501h-.004zm3.47 3.324c0-.435.244-.673 1.015-.78l.901-.156a1.32 1.32 0 0 0 .36-.16v.603c.01.211-.047.42-.162.598a1.05 1.05 0 0 1-.483.399c-.47.217-1.014.271-1.379-.004a.59.59 0 0 1-.191-.219c-.044-.088-.065-.184-.061-.282h0zm.663-1.379c-.86.103-1.446.558-1.446 1.391 0 .763.599 1.329 1.45 1.329a2.18 2.18 0 0 0 .915-.198 2.13 2.13 0 0 0 .74-.562c.072.517.298.693.709.693.085.001.17-.003.255-.012.067-.008.155-.033.273-.066v-.554l-.134.02-.113.004c-.105 0-.177-.025-.21-.074s-.05-.107-.05-.185V62.5c0-.854-.746-1.26-1.811-1.26-.93 0-1.744.373-1.777 1.489h.721c.079-.64.415-.833 1.035-.833.7 0 1.077.226 1.077.726 0 .123-.012.221-.046.287-.063.119-.18.197-.356.217l-1.232.152h0zm3.805-3.192h.767v1.247h.742v.624h-.742v2.926c0 .156.059.258.168.316a.73.73 0 0 0 .298.045l.121-.004a1.1 1.1 0 0 0 .151-.012v.607a1.49 1.49 0 0 1-.277.049c-.101.015-.203.022-.306.02-.716 0-.922-.394-.922-.972v-2.971h-.628v-.628h.624v-1.247h.004zm2.456 1.28h.772v4.472h-.772v-4.472h0zm0-1.682h.772v.866h-.772v-.866zm3.735 5.658c-.935 0-1.337-.714-1.337-1.674 0-.997.406-1.801 1.345-1.801.859 0 1.32.566 1.32 1.641.005.931-.314 1.834-1.328 1.834h0zm.021-4.136c-1.304 0-2.146.968-2.146 2.478 0 1.424.788 2.314 2.045 2.314 1.501 0 2.192-1.063 2.192-2.507.004-1.502-.918-2.285-2.091-2.285zm3.055.127h.755v.636a1.78 1.78 0 0 1 .649-.546 1.82 1.82 0 0 1 .834-.188c.994 0 1.492.423 1.492 1.715v2.885h-.771V63c0-.739-.297-1.087-.872-1.087-.519 0-.762.14-1.01.427-.26.3-.306.558-.306 1.141v2.359h-.775v-4.505h.004zM69.412 40.503H63.36c-.344-1.514-.813-2.72-2.569-3.336-1.023-.357-2.649-.308-3.772.542-1.756 1.334-2.041 4.308-1.886 5.695.13 1.362.629 3.336 2.49 4.234 1.132.591 2.833.64 3.931-.029 1.257-.689 1.547-1.846 1.836-3.053h6.052c.214 2.388-1.857 6.134-5.453 7.702-3.143 1.358-7.758 1.05-10.822-1.03-3.487-2.331-4.434-6.54-4.221-9.363.18-3.385 1.702-6.852 5.662-8.85 2.829-1.44 7.523-1.333 10.168.23 3.248 1.896 4.426 4.23 4.636 7.258h0zm6.895-8.005v6.643c.893-.611 1.387-1.026 2.649-1.412 1.467-.435 3.512-.254 4.9.747 1.995 1.461 2.2 4.156 2.15 5.67v8.444h-5.662v-6.544c0-1.44.105-2.823-.993-3.438-.578-.336-1.492-.386-2.016-.082-1.153.747-1.048 2.109-1.048 3.697v6.364h-5.612V32.498h5.633zm18.135 9.646c.763-.357 1.915-.254 2.703.254 1.127.722 1.442 1.851 1.387 2.93-.025.923-.444 2.257-1.626 2.921-.41.203-.863.309-1.322.309s-.913-.106-1.322-.309c-1.132-.665-1.63-1.744-1.677-2.921-.055-1.128.469-2.568 1.857-3.184zm.184-4.542c-1.836-.279-4.191.156-5.847 2.051-2.045 2.285-2.175 6.06-1.572 8.132.809 2.622 2.226 4.259 4.9 5.006 2.1.615 4.325.103 6.19-1.567v1.362h5.684V38.193h-5.583v1.153c-1.417-1.202-2.171-1.51-3.772-1.744h0zm25.055 2.051c2.309-2.15 4.899-2.462 6.97-1.592 3.173 1.334 3.202 3.467 3.202 6.159v8.366h-5.713v-6.799c0-1.773.051-2.848-.813-3.414a2 2 0 0 0-.973-.238c-.34.004-.673.095-.967.262-.968.644-.918 1.641-.918 3.389v6.799h-5.637v-7c0-.976.13-2.667-.969-3.315-.269-.156-.577-.238-.89-.238s-.621.082-.891.238c-1.048.644-.947 2.31-.947 3.414v6.906h-5.583V38.193h5.503v1.26c2.016-1.9 3.827-2.208 5.767-1.744 1.052.254 1.761.665 2.859 1.945h0zm19.447 2.413c.497-.108 1.013-.094 1.503.041s.938.386 1.305.73c.943.923 1.073 2.462.788 3.434-.121.532-.387 1.021-.772 1.415s-.87.678-1.407.821a2.82 2.82 0 0 1-1.455.029c-.48-.118-.918-.359-1.269-.698-.969-1.001-1.128-2.437-.839-3.541.31-1.104.968-1.924 2.146-2.232h0zm2.31 10.984c1.601.025 4.061-.874 5.503-2.798 1.726-2.335 1.835-5.851 1.022-8.132-.762-2.232-2.179-3.693-4.405-4.337-2.045-.566-4.195-.308-6.5 1.485v-1.079h-5.583v19.962h5.587v-6.643c1.572 1.132 2.695 1.518 4.376 1.543zm7.862-20.552h5.638v4.698h-5.638v-4.698zm0 5.695h5.638v14.398h-5.638V38.193h0zm14.204 3.619c.439-.106.898-.106 1.336.002a2.79 2.79 0 0 1 1.179.614c.947.874 1.077 2.54.893 3.566-.21 1.001-.708 1.9-1.836 2.335a2.82 2.82 0 0 1-1.276.107c-.428-.063-.835-.223-1.188-.468-1.128-.845-1.308-2.306-1.233-3.258.109-1.28.579-2.486 2.125-2.897h0zm-3.617-3.311c-2.778 1.461-3.856 4.005-4.011 6.056-.209 2.236.315 4.723 2.964 6.754 2.355 1.846 6.052 2.13 8.441 1.334 1.218-.407 2.315-1.104 3.193-2.026s1.508-2.044 1.836-3.263c.579-2.129.524-4.952-1.626-7.262-2.385-2.54-6.207-2.77-8.072-2.462a9.02 9.02 0 0 0-2.725.87h0zm28.752 14.09h-5.503v-6.364c0-1.641-.025-3.311-1.077-3.873-.296-.162-.628-.25-.967-.255a2.08 2.08 0 0 0-.974.226c-1.257.747-1.102 2.593-1.102 3.775v6.491h-5.448V38.193h5.423v1.182c2.045-1.822 4.745-2.306 6.685-1.44 3.018 1.387 2.963 3.722 2.963 6.212v8.444z" fill="#434a57"/><path d="M8.547 56.928c-2.209-4.403-2.029-10.746.386-15.026 2.573-5.055 8.123-8.883 14.296-9.211 1.622-.099 3.37-.025 5.063-.049v2.963s-2.628-.008-3.881 0c-2.108.008-4.12.377-5.914 1.243-2.724 1.223-4.995 3.241-6.5 5.778a13.97 13.97 0 0 0-1.908 8.39c.566 5.839 4.451 10.648 10.18 12.432 5.889 1.76 12.238-.406 15.684-4.862 1.668-2.162 2.816-4.702 2.967-7.624l.088-1.457V32.641h3.039l-.055 17.492c-.18 7.144-4.497 13.208-11.182 15.756-6.119 2.363-13.6.907-18.202-3.422-1.714-1.566-3.094-3.449-4.061-5.539m4.244-1.608c-2.108-4.078-1.417-9.893 1.412-13.29a12.9 12.9 0 0 1 4.441-3.585 13.17 13.17 0 0 1 5.589-1.347h4.061v2.975c-2.599.07-5.298-.283-7.506.697a9.87 9.87 0 0 0-4.262 3.222c-1.089 1.439-1.749 3.146-1.907 4.93-.187 1.995.255 3.998 1.265 5.739a9.93 9.93 0 0 0 4.389 4.002c3.365 1.686 7.997 1.009 10.746-1.412 2.054-1.76 3.29-4.243 3.395-6.996l.042-17.614h3.035l-.042 17.643c-.151 5.133-3.265 9.359-7.917 11.325-4.732 2.011-10.646.78-14.116-2.692-1.157-1.059-1.903-2.24-2.624-3.598m4.519-1.135c-1.488-2.413-1.668-6.011-.151-8.452 1.178-2.216 3.818-4.144 6.631-4.169h4.497v2.971s-2.473-.016-3.592 0c-1.14.045-2.217.164-3.089.821-1.723 1.128-2.829 3.094-2.414 5.359.331 2.039 1.848 3.75 3.982 4.304a5.57 5.57 0 0 0 3.163-.147c1.017-.354 1.902-.995 2.546-1.843 1.052-1.305 1.002-3.291 1.002-5.162V32.643h3.047l-.042 17.04c-.025 3.295-1.568 6.064-4.547 7.57-2.49 1.366-6.094 1.112-8.408-.423-1.054-.693-1.948-1.595-2.624-2.647" fill="#3f7fca"/></svg>