<svg xmlns="http://www.w3.org/2000/svg" width="196" height="100" fill="none" xmlns:v="https://vecta.io/nano"><g clip-path="url(#A)"><path d="M165.945 60.486c0-2.291 1.806-4.149 4.029-4.149s4.028 1.858 4.028 4.149-1.804 4.148-4.028 4.148-4.029-1.857-4.029-4.148z" fill="#86bc24"/><path d="M37.462 49.499c0-2.628-.493-4.578-1.479-5.848s-2.483-1.903-4.494-1.903H29.35v16.07h1.637c2.233 0 3.87-.682 4.912-2.051s1.563-3.456 1.563-6.269h0zm7.628-.274c0 4.788-1.249 8.477-3.749 11.066s-6.013 3.886-10.541 3.886H22V35.489h9.414c4.367 0 7.738 1.178 10.114 3.532s3.562 5.755 3.562 10.204h0zm24.376 14.952h7.002V35.369h-7.002v28.809zm16.84-10.746c0 1.837.233 3.238.698 4.2s1.247 1.446 2.345 1.446c1.086 0 1.855-.481 2.302-1.446s.67-2.364.67-4.2c0-1.827-.226-3.205-.68-4.136s-1.23-1.4-2.329-1.4c-1.075 0-1.843.465-2.309 1.389s-.698 2.307-.698 4.147h0zm13.143 0c0 3.499-.891 6.23-2.676 8.186s-4.283 2.938-7.494 2.938c-3.08 0-5.531-1.001-7.351-3.004s-2.732-4.708-2.732-8.12c0-3.489.892-6.2 2.678-8.132s4.29-2.899 7.514-2.899c1.992 0 3.755.448 5.282 1.342s2.708 2.175 3.537 3.844 1.244 3.616 1.244 5.845h0zm2.781 10.746h7.003V42.778h-7.003v21.399zm-.001-23.987h7.004v-4.822h-7.004v4.822zm21.193 18.53c.946 0 2.071-.247 3.385-.738v5.384c-.944.427-1.842.733-2.695.915s-1.855.275-3 .275c-2.352 0-4.047-.609-5.088-1.824s-1.556-3.08-1.556-5.598v-8.821h-2.452V42.78h2.452v-5.465l7.057-1.264v6.729h4.469v5.532h-4.469v8.329c0 1.386.633 2.078 1.897 2.078zm16.209 0c.945 0 2.071-.247 3.385-.738v5.384c-.943.427-1.842.733-2.695.915s-1.852.275-3.001.275c-2.351 0-4.046-.609-5.085-1.824s-1.558-3.08-1.558-5.598v-8.821h-2.454V42.78h2.454v-5.547l7.056-1.181v6.729h4.471v5.532h-4.471v8.329c0 1.386.633 2.078 1.898 2.078h0zm12.222-7.895c.095-1.172.421-2.03.975-2.579s1.245-.821 2.068-.821c.898 0 1.611.307 2.141.927s.81 1.441.832 2.473h-6.016zm9.876-5.902c-1.665-1.68-4.027-2.522-7.082-2.522-3.212 0-5.683.966-7.415 2.899s-2.597 4.706-2.597 8.32c0 3.499.936 6.198 2.803 8.092s4.493 2.843 7.872 2.843c1.623 0 3.019-.114 4.19-.341 1.163-.224 2.289-.63 3.382-1.216l-1.076-4.823c-.794.334-1.55.591-2.263.76-1.03.246-2.161.37-3.392.37-1.35 0-2.416-.34-3.197-1.019s-1.197-1.62-1.245-2.815h12.518v-3.286c0-3.161-.833-5.582-2.498-7.262zM54.384 50.825c.096-1.172.421-2.03.976-2.579s1.245-.821 2.069-.821c.895 0 1.609.307 2.139.927s.809 1.441.833 2.473h-6.017zm9.877-5.902c-1.666-1.68-4.026-2.522-7.083-2.522-3.213 0-5.683.966-7.414 2.899s-2.598 4.706-2.598 8.32c0 3.499.935 6.198 2.805 8.092s4.491 2.843 7.871 2.843c1.623 0 3.019-.114 4.189-.341 1.163-.224 2.29-.63 3.383-1.216l-1.077-4.823c-.794.334-1.549.591-2.262.76-1.033.246-2.162.37-3.393.37-1.349 0-2.415-.34-3.196-1.019s-1.197-1.62-1.245-2.815h12.517v-3.286c0-3.161-.832-5.582-2.497-7.262" fill="#fff" fill-opacity=".9"/></g><defs><clipPath id="A"><path fill="#fff" transform="translate(22 33)" d="M0 0h152v34H0z"/></clipPath></defs></svg>