<svg xmlns="http://www.w3.org/2000/svg" width="196" height="100" fill="none" xmlns:v="https://vecta.io/nano"><path d="M46.292 44.396c0 1.362.358 1.529 1.931 1.601v.478H42v-.478c1.288-.072 1.669-.215 1.669-1.601v-8.983c0-1.386-.358-1.529-1.621-1.601v-.502h10.968l.072 2.891h-.548c-.453-1.457-.954-1.935-3.529-1.935h-2.003c-.596 0-.739.143-.739.669v4.157h2.241c2.051 0 2.48-.358 2.742-1.744h.501v4.659h-.501c-.262-1.553-1.049-1.935-2.742-1.935h-2.218v4.324zm12.947 0c0 1.362.358 1.529 1.931 1.601v.478h-6.486v-.478c1.574-.072 1.931-.215 1.931-1.601v-8.983c0-1.386-.358-1.529-1.931-1.601v-.502h6.486v.502c-1.574.048-1.931.215-1.931 1.601v8.983zm15.475-8.625c0-1.29-.358-1.792-1.788-1.959v-.502h4.626v.502c-1.431.167-1.765.669-1.765 1.959v11.014h-.644l-8.965-10.369v7.597c0 1.29.334 1.792 1.764 1.959v.478h-4.65v-.478c1.431-.167 1.788-.669 1.788-1.959v-8.84c-.453-.788-.978-1.147-1.788-1.338v-.502h3.577l7.821 9.055v-6.618h.024zm7.01 5.997l1.979-5.208 1.955 5.208h-3.934zm9.419 4.707v-.478c-.978.024-1.24-.406-1.741-1.648L84.777 33h-.644l-4.816 11.73c-.334.812-.763 1.051-1.598 1.242v.478h4.173v-.478c-.906 0-1.359-.191-1.359-.836 0-.549.596-2.007.763-2.413h4.745c.143.43.787 1.887.787 2.413 0 .645-.477.836-1.383.836v.478l5.699.024zm12.733-10.703c0-1.29-.357-1.792-1.764-1.959v-.502h4.626v.502c-1.431.167-1.789.669-1.789 1.959v11.014h-.644L95.34 36.416v7.597c0 1.29.358 1.792 1.788 1.959v.478h-4.65v-.478c1.431-.167 1.788-.669 1.788-1.959v-8.84c-.453-.788-.978-1.147-1.788-1.338v-.502h3.577l7.821 9.055v-6.618zm16.596 7.597c-1.383 2.341-3.171 3.416-5.89 3.416-4.268 0-6.795-2.819-6.795-7.024 0-2.986 2.36-6.761 6.938-6.761 1.36 0 3.315.764 3.601.764.381 0 .501-.215.811-.764h.643l.263 4.396h-.573c-.786-2.031-2.146-3.512-4.435-3.512-3.099 0-4.435 3.345-4.435 5.877 0 3.56 1.526 5.925 4.793 5.925 2.551 0 3.958-1.887 4.554-2.724l.525.406zm6.366 1.027c0 1.362.358 1.529 1.932 1.601v.478h-6.486v-.478c1.574-.072 1.931-.215 1.931-1.601v-8.983c0-1.386-.357-1.529-1.931-1.601v-.502h6.486v.502c-1.574.048-1.932.215-1.932 1.601v8.983zm7.297-2.628l1.979-5.208 1.955 5.208h-3.934zm9.418 4.707v-.478c-.977.024-1.24-.406-1.74-1.648L137.187 33h-.644l-4.817 11.73c-.333.812-.763 1.051-1.597 1.242v.478h4.173v-.478c-.906 0-1.36-.191-1.36-.836 0-.549.597-2.007.763-2.413h4.746c.143.43.786 1.887.786 2.413 0 .645-.476.836-1.383.836v.478l5.699.024zm1.145 0v-.478c1.264-.048 1.621-.215 1.621-1.601v-8.983c0-1.386-.357-1.529-1.621-1.601v-.502h6.056v.502c-1.454.048-1.812.215-1.812 1.601v9.246c0 .788.239 1.051 1.693 1.051 2.361 0 3.744-.43 4.864-2.747H156l-.882 3.512c.024 0-10.42 0-10.42 0zM44.885 67.212c1.502-.072 1.86-.215 1.86-1.601V55.505h-1.621c-1.526 0-2.122.621-2.551 2.389H42l.31-3.369h11.517l.31 3.369h-.572c-.429-1.792-1.025-2.389-2.551-2.389h-1.621v10.106c0 1.362.358 1.529 1.86 1.601v.478h-6.343v-.478h-.024zm15.165-1.577c0 1.362.358 1.529 1.931 1.577v.502h-6.486v-.502c1.574-.048 1.931-.215 1.931-1.577v-8.983c0-1.362-.358-1.529-1.931-1.577v-.502h6.486v.502c-1.574.048-1.931.215-1.931 1.577 0-.024 0 8.983 0 8.983zM75.764 54.55h4.53v.502c-1.264.048-1.621.215-1.621 1.577v8.983c0 1.362.358 1.529 1.621 1.601v.478h-5.913v-.478c1.288-.072 1.669-.215 1.669-1.601v-9.246h-.048l-4.387 11.515h-.596l-4.292-11.491h-.048v8.864c0 1.29.358 1.792 1.788 1.959v.478h-4.626v-.478c1.431-.167 1.764-.669 1.764-1.959v-8.935c0-.908-.382-1.266-1.764-1.266v-.502h4.769l3.505 9.126c-.024 0 3.648-9.126 3.648-9.126zm6.39 13.164v-.478c1.264-.072 1.622-.215 1.622-1.601v-8.983c0-1.362-.358-1.529-1.622-1.577v-.502h10.969l.072 2.891h-.548c-.477-1.457-.978-1.935-3.529-1.935h-1.979c-.596 0-.739.143-.739.669v4.157h2.241c2.051 0 2.48-.358 2.742-1.744h.501v4.635h-.501c-.262-1.553-1.049-1.935-2.742-1.935h-2.241v4.563c0 .788.239 1.051 2.551 1.051 2.361 0 3.744-.43 4.864-2.747h.501l-.882 3.512H82.154v.024zm13.878-4.133h.501c.548 1.744 2.218 3.56 4.149 3.56 1.669 0 2.265-1.147 2.265-2.198 0-3.01-6.795-3.584-6.795-7.334 0-1.816 1.764-3.369 3.767-3.369 1.979 0 2.671.693 3.529.693.358 0 .596-.287.691-.693h.501v4.181h-.501c-.548-1.887-1.883-3.297-3.672-3.297-1.454 0-2.002.956-2.002 1.84 0 2.676 6.796 2.771 6.796 7.382 0 2.078-1.693 3.655-4.053 3.655-2.313 0-2.909-.812-3.815-.812-.334 0-.572.239-.644.645h-.692l-.024-4.253z" fill="#121519"/></svg>