<svg xmlns="http://www.w3.org/2000/svg" width="82" height="82" fill="none"><path d="M41 82c22.644 0 41-18.356 41-41S63.644 0 41 0 0 18.356 0 41s18.356 41 41 41z" fill="#fbbe61"/><g stroke="#fff" stroke-miterlimit="10"><path d="M9.049 48.493c-.707-2.615-1.06-5.372-1.06-8.2 0-18.238 14.774-32.941 32.941-32.941s32.941 14.774 32.941 32.941c0 2.262-.212 4.524-.636 6.645" stroke-width="2"/><path d="M41.776 15.198s-6.079 6.291 0 13.855c0 0 5.797-6.786 0-13.855zm9.755 12.088s-8.765.424-9.543 10.109c0-.071 8.836-.99 9.543-10.109z"/><path d="M41.775 29.054v28.983m-9.683-30.751s8.766.424 9.543 10.109c0-.071-8.836-.99-9.543-10.109zm19.439 10.038s-8.765.424-9.543 10.109c0 0 8.836-.99 9.543-10.109zm-19.439 0s8.766.424 9.543 10.109c0 0-8.836-.99-9.543-10.109zm19.439 10.674s-8.765.424-9.543 10.109c0-.071 8.836-.99 9.543-10.109zm-19.439 0s8.766.424 9.543 10.109c0-.071-8.836-.99-9.543-10.109z"/></g></svg>