<svg xmlns="http://www.w3.org/2000/svg" width="82" height="82" fill="none"><path d="M41 82c22.644 0 41-18.356 41-41S63.644 0 41 0 0 18.356 0 41s18.356 41 41 41z" fill="#edbdcd"/><g stroke="#fff" stroke-miterlimit="10"><path d="M9.616 50.826c-.99-3.181-1.555-6.574-1.555-10.038 0-18.238 14.774-32.941 32.941-32.941s32.941 14.774 32.941 32.941c0 3.605-.566 7.069-1.626 10.321" stroke-width="2"/><path d="M32.8 27.358c0-.212.071-.495.071-.707a2.99 2.99 0 0 0-2.969-2.969c-1.343 0-2.545.919-2.828 2.191-.353-1.272-1.484-2.191-2.828-2.191a2.99 2.99 0 0 0-2.969 2.969c0 5.019 5.726 6.998 5.726 6.998s1.06-.424 2.333-1.202m.143 18.096c0 3.181 3.676 4.453 3.676 4.453s3.746-1.343 3.746-4.453a1.9 1.9 0 0 0-1.909-1.909c-.848 0-1.626.566-1.838 1.414-.212-.778-.919-1.414-1.838-1.414-.99 0-1.838.848-1.838 1.909z"/><path d="M29.268 33.649c0 12.159 13.855 17.036 13.855 17.036s14.279-5.09 14.279-17.036a7.12 7.12 0 0 0-7.14-7.14c-3.322 0-6.15 2.262-6.928 5.372-.778-3.11-3.605-5.372-6.928-5.372a7.12 7.12 0 0 0-7.14 7.14z"/><path d="M37.114 28.065c-.636-.071-1.272 0-1.838.071m-1.343.495c-1.979 1.06-3.181 3.181-3.181 5.443a11.96 11.96 0 0 0 2.121 6.857m20.356 5.653c0 3.676 4.171 5.16 4.171 5.16s4.312-1.555 4.312-5.16c0-1.202-.99-2.191-2.191-2.191-.99 0-1.838.707-2.121 1.626-.212-.919-1.06-1.626-2.121-1.626s-2.05.99-2.05 2.191z"/></g></svg>