<svg xmlns="http://www.w3.org/2000/svg" width="82" height="82" fill="none"><path d="M41 82c22.644 0 41-18.356 41-41S63.644 0 41 0 0 18.356 0 41s18.356 41 41 41z" fill="#9ed6c9"/><g stroke="#fff"><g stroke-miterlimit="10"><path d="M9.049 48.493c-.707-2.615-1.06-5.372-1.06-8.2 0-18.238 14.774-32.941 32.941-32.941s32.941 14.774 32.941 32.941c0 2.262-.212 4.524-.636 6.645" stroke-width="2"/><g stroke-linejoin="round"><path d="M42.536 22.077c9.293-2.528 10.37 9.215 17.642 10.417 0 0-4.186 4.538-13.372 4.065-7.499-.373-10.312-9.026-10.312-9.026s.315-3.893 6.042-5.456z" fill="#9ed6c9"/><path d="M29.249 30.608s6.799-7.895 14.749-2.263c6.686 4.737 11.439 4.837 11.439 4.837" stroke-linecap="square"/></g></g><path d="M52.05 28.996c-1.85.223-5.52.765-5.402 1.147m-3.707-2.518c.238 1.671 1.078 5.11 2.535 5.497"/></g><path d="M25.718 49.758c0 1.4-.4 2.4-1.2 2.8-1.5.6-3.7-1.3-5-4.3s-1.1-6 .4-6.6c.8-.3 1.8.1 2.8.9" fill="#9ed6c9"/><path d="M23.819 53.258c-.7 0-1.5-.4-2.3-1-1-.9-1.9-2.2-2.6-3.7s-1-3.1-.9-4.4c.1-1.5.6-2.5 1.6-2.9s2.2 0 3.4 1.1l-.8.8c-.8-.8-1.6-1.1-2.2-.8-.5.2-.8.9-.9 1.9-.1 1.2.2 2.6.8 3.9.6 1.4 1.4 2.6 2.3 3.3.8.7 1.5.9 2 .7.6-.2.9-1.1.9-2.3h1.1c0 1.7-.6 2.9-1.6 3.3-.2 0-.5.1-.8.1z" fill="#fff"/><path d="M53.719 43.758c.4-.3.5-.6.4-.8-.8-1.2-3.9-.5-5.1-.3-1.5.3-3 .7-4.5.8-2.5.1-4.8-1-7-1.9-.6-.3 1.8 1.8 1.3 2.2a.76.76 0 0 0-.2.4.76.76 0 0 0 .2.4c.5.6 1.2 1 2 1.3 2.3.8 4.9.6 7.2.1.6-.1 4.4-1.2 5.7-2.2z" fill="#9ed6c9"/><path d="M44.318 46.958c-1.3 0-2.6-.2-3.7-.6-1-.4-1.8-.9-2.2-1.5-.1-.2-.3-.4-.3-.7 0-.2 0-.4.2-.7l-.8-1.1c-.5-.5-.8-.8-.5-1.3l.3-.4 1.1.4c2 .9 4 1.8 6.1 1.7 1.3-.1 2.5-.4 3.8-.6l.6-.1c2.3-.5 4.7-.8 5.6.5.2.2.4.9-.5 1.6-1.4 1.1-5.4 2.2-5.9 2.3-1.4.4-2.7.5-3.8.5zm-5.1-4c.3.5.4.9 0 1.2.3.5.9.9 1.7 1.2 1.9.7 4.2.7 6.9.1.7-.2 4.3-1.2 5.5-2.1.1-.1.1-.1.2-.1-.5-.5-2-.5-4.3.1l-.6.1-3.9.7c-2.1 0-3.8-.5-5.5-1.2z" fill="#fff"/><path d="M59.219 51.758c.1 0 .2 0 .4-.1s.5-.2.6-.4c.1-.3 0-.5-.1-.8-.4-.7-1.9-1.3-3.8-1.7l-5.3-1c-3-.6-7.8-2.7-10.7-4.6-.9-.6-.7.8-.7 2.5 0 .6.3 1.1.7 1.5.9 1 2.2 1.6 3.4 2 2.2.8 4.4 1.3 6.7 1.9 1 .2 2 .5 3 .7.9.1 1.8-.1 2.7-.2.8.1 2 .4 3.1.2z" fill="#9ed6c9"/><path d="M53.719 52.458h-.6c-.8-.1-1.5-.3-2.3-.5l-.7-.2-6.8-1.9c-1.3-.5-2.7-1.1-3.7-2.2-.5-.6-.8-1.2-.8-1.9v-.6c0-1.4-.1-2.2.5-2.5.3-.2.7-.1 1.1.1 2.8 1.9 7.5 3.9 10.5 4.5.9.2 1.9.4 2.8.5.8.2 1.7.3 2.5.5 2.3.5 3.7 1.1 4.2 1.9.4.6.3 1 .2 1.3-.2.4-.5.7-1 .8-.1 0-.3.1-.4.1-.7.1-1.3 0-2-.1-.5 0-.9-.1-1.4-.1-.3 0-.6.1-.9.1-.3.1-.8.2-1.2.2zm-13.7-8.7v1.3.6c0 .4.3.9.5 1.1.8.9 2 1.4 3.2 1.8 2.2.8 4.4 1.3 6.6 1.9l.7.2c.7.2 1.5.4 2.2.5.5.1 1 0 1.6-.1.3 0 .7-.1 1.1-.1.5 0 1 0 1.5.1.6.1 1.2.1 1.7.1.1 0 .2 0 .3-.1.1 0 .2-.1.2-.1s0-.1-.1-.3-.7-.9-3.5-1.4c-.8-.2-1.7-.3-2.5-.5-.9-.2-1.9-.3-2.8-.5-3-.5-7.8-2.6-10.7-4.5z" fill="#fff"/><path d="M54.918 54.758c1.2.5 3.9.8 5 .8.7 0 2.5 0 2.6-.9.2-1.3-2.4-2.1-3.3-2.4l-3.9-.9-6.6-1.6c-3.3-1-6.5-2.3-9.4-4 .2.2 1.3 1.2 1.1 1.4-.1.2 0 .5.1.7.8 2 2.3 3.5 4.2 4.6 1.8 1 3.9 1.6 6 2 2 .3 2.3-.4 4.2.3z" fill="#9ed6c9"/><path d="M60.319 56.158h-.4c-1.1 0-3.8-.3-5.2-.8-.9-.4-1.4-.3-2-.3-.5 0-1.1.1-2.1-.1-2.6-.5-4.5-1.1-6.2-2-2.1-1.2-3.7-2.9-4.4-4.9-.1-.3-.2-.6-.1-1-.1-.2-.5-.5-.6-.7l-.4-.4-1.7-2.3 2.4 1.5c2.7 1.6 5.7 2.9 9.3 4 1.4.4 2.9.7 4.3 1.1.8.2 1.5.3 2.3.5.7.2 1.1.3 1.6.4.7.2 1.2.3 2.3.6.9.2 4 1.2 3.7 3-.1.9-1.1 1.4-2.8 1.4zm-7-2.3c.5 0 1 .1 1.8.4 1.2.4 3.8.7 4.8.8 1.6.1 2-.3 2-.5.1-.5-1.2-1.3-2.9-1.7l-2.3-.6c-.4-.1-.9-.2-1.6-.4-.8-.2-1.5-.4-2.3-.5-1.4-.3-2.9-.7-4.3-1.1-2.8-.8-5.3-1.8-7.6-3v.1s0 .1.1.3c.7 1.7 2 3.2 3.9 4.3 1.5.9 3.4 1.5 5.8 1.9.8.1 1.3.1 1.8.1.3-.1.6-.1.8-.1z" fill="#fff"/><path d="M26.72 42.958c1.5-.7 3.5-.2 4.8.7 1.4.8 2.4 2.1 3.4 3.3 1.1 1.6 2.2 3.2 3.7 4.5s3.3 2.2 5.1 2.9c2.5 1 5.1 1.7 7.8 2.3l4 .8c.8.1 2.5.5 2.7-.7.1-.7-.3-1.2-.9-1.5-1.6-.8-3.6-1.2-5.4-1.7l-5.8-1.9c-1.2-.5-2.4-1.2-3.2-2.3-.3-.4-.5-.8-.7-1.2-.8-1.9-1.1-3.8-2.5-5.4-1.2-1.4-3-2.3-4.8-2.7-3.8-.9-9.1-.7-12.4 1.7" fill="#9ed6c9"/><g fill="#fff"><path d="M56.919 58.158c-.5 0-1-.1-1.3-.1l-4.1-.8c-3-.7-5.6-1.4-7.9-2.3-2.1-.8-3.8-1.8-5.3-3-1.4-1.2-2.5-2.7-3.5-4.1l-.3-.5c-.8-1-1.8-2.3-3.2-3.2-1.2-.7-3-1.2-4.3-.6l-.5-1c1.8-.8 4-.2 5.4.7 1.6 1 2.7 2.4 3.5 3.5l.3.5c1 1.4 2 2.8 3.3 3.9s3 2.1 4.9 2.8c2.2.9 4.8 1.6 7.7 2.3l4 .8c1 .2 1.9.3 2.1-.3.1-.3-.1-.6-.6-.9-1.1-.6-2.5-.9-3.8-1.3-.5-.1-1-.3-1.5-.4l-5.8-1.9c-1.5-.6-2.7-1.4-3.5-2.5-.3-.4-.5-.8-.8-1.3-.3-.6-.5-1.2-.7-1.8-.5-1.3-.9-2.5-1.8-3.5-1.1-1.2-2.6-2.1-4.5-2.6-3.6-.9-8.7-.7-11.9 1.7l-.7-.9c3.5-2.6 8.9-2.8 12.8-1.8 2.1.5 3.9 1.5 5.1 2.9 1 1.2 1.5 2.6 2 3.9.2.6.4 1.1.6 1.7.2.4.4.7.6 1.1.7.9 1.7 1.6 3 2.1 1.9.8 3.9 1.3 5.7 1.9.5.1 1 .3 1.5.4 1.4.4 2.8.7 4 1.4 1 .5 1.4 1.3 1.2 2.1 0 .9-.9 1.1-1.7 1.1z"/><path d="M44.22 58.658c-.4 0-.7-.3-.9-.4-1-.9-2.3-1.5-3.7-2a27.18 27.18 0 0 1-2.5-1.1l-2.3-1.6c-1.1-.8-2.1-1.5-3.2-1.9-1.4-.5-2.3-.8-3.8-1.1-.9-.1-1.8 0-2.7.1l-.1-1.1c.9-.1 1.9-.2 2.9-.1 1.6.2 2.6.6 4 1.1 1.3.5 2.4 1.3 3.5 2.1l2.2 1.5c.7.4 1.6.7 2.4 1.1 1.4.6 2.9 1.1 4.1 2.2.1-1.2-1-2.2-1.4-2.6-.5-.4-1-.7-1.5-1l-1.5-1 .7-.9c.4.3.9.6 1.4.9a15.26 15.26 0 0 1 1.6 1.1c1.3 1 1.9 2.3 1.8 3.5 0 .6-.3 1-.8 1.1-.1.1-.1.1-.2.1zm-17.301-15.2c1.5-.6 3.1-.2 4.4.6.6.3 1.1-.6.5-.9-1.6-.9-3.5-1.4-5.2-.7-.6.2-.4 1.3.3 1z"/></g><path d="M26.218 50.058c-1.1.5-2.8-1-3.8-3.3s-.8-4.5.3-5" fill="#9ed6c9"/><path d="M26.018 49.458c-2.4.7-5.2-6-3.1-7.3.6-.4.1-1.3-.5-.9-3.3 1.9.3 10.3 3.9 9.2.7-.1.4-1.2-.3-1z" fill="#fff"/></svg>