<svg xmlns="http://www.w3.org/2000/svg" width="82" height="82" fill="none"><style><![CDATA[.B{stroke-miterlimit:10}.C{stroke-linecap:square}.D{stroke:#fff}.E{stroke-linejoin:round}]]></style><path d="M41 82c22.644 0 41-18.356 41-41S63.644 0 41 0 0 18.356 0 41s18.356 41 41 41z" fill="#d0b0ef"/><g class="D"><path d="M9.049 48.493c-.707-2.615-1.06-5.372-1.06-8.2 0-18.238 14.774-32.941 32.941-32.941s32.941 14.774 32.941 32.941c0 2.262-.212 4.524-.636 6.645" stroke-width="2" class="B"/><path d="M45.988 24.217c.418 2.449-1.254 4.726-3.652 5.146-2.449.418-4.725-1.254-5.145-3.652-.417-2.449 1.254-4.725 3.652-5.145 2.455-.419 4.726 1.194 5.145 3.651z"/><g class="B E"><path d="M37.23 42.833c2.729 3.461 3.66 9.317 3.727 9.384.2.066-6.588 1.198-10.648-3.793s-1.531-11.38-1.531-11.18c.067.133 5.59 2.263 8.452 5.59z"/><path d="M30 40c3.012 5.894 6.023 7.858 11 12" class="C"/></g></g><path d="M30 44c1 1 2 2 3.5 2z" fill="#fff"/><path d="M30 44c1 1 2 2 3.5 2" class="B C D E"/><path d="M37 45c.5 1 1 2.5 1 4z" fill="#fff"/><g class="B D E"><path d="M37 45c.5 1 1 2.5 1 4" class="C"/><path d="M47.678 33.45c-3.328 2.862-5.324 8.452-5.457 8.518-.2.067 6.256 2.396 11.18-1.73 4.925-4.193 3.66-10.914 3.594-10.714-.133.133-5.923 1.198-9.317 3.926z"/><path d="M55.5 32c-4.5 5.5-7.223 7.373-13.279 9.968" class="C"/></g><path d="M54.527 37l-4.027.5z" fill="#fff"/><path d="M54.527 37l-4.027.5" class="B C D E"/><path d="M47.945 35.846a24.99 24.99 0 0 1-1.597 3.993z" fill="#fff"/><g class="B C D E"><path d="M47.945 35.846a24.99 24.99 0 0 1-1.597 3.993"/><path d="M32.839 35.114c-1.597-1.597-1.597-4.126 0-5.657 1.93-1.93 5.124-1.93 7.054 0 .333.333.666.865.932 1.398.599 1.331.932 2.728.932 4.193v20.763H29.777h23.958"/><path d="M41.754 35.779c-.2-2.662.133-7.321 4.459-7.321"/></g></svg>